<?xml version="1.0" standalone="no"?>
<!DOCTYPE svg PUBLIC "-//W3C//DTD SVG 20010904//EN"
 "http://www.w3.org/TR/2001/REC-SVG-20010904/DTD/svg10.dtd">
<svg version="1.0" xmlns="http://www.w3.org/2000/svg"
 width="640.000000pt" height="640.000000pt" viewBox="0 0 640.000000 640.000000"
 preserveAspectRatio="xMidYMid meet">
<metadata>
Created by potrace 1.14, written by Peter Selinger 2001-2017
</metadata>
<g transform="translate(0.000000,640.000000) scale(0.100000,-0.100000)"
fill="#000000" stroke="none">
<path d="M1585 5876 c-38 -17 -90 -72 -104 -109 -8 -19 -11 -264 -11 -744 0
-694 1 -718 20 -757 12 -26 131 -153 323 -344 l303 -303 -54 -84 -54 -83 -381
229 -380 228 -187 465 c-114 284 -196 476 -211 492 -55 59 -150 81 -222 50
-39 -17 -92 -71 -106 -109 -26 -68 -17 -96 190 -617 111 -278 212 -518 224
-535 15 -19 184 -126 481 -304 253 -151 460 -275 460 -275 1 -1 -1 -16 -3 -33
l-5 -33 -412 0 c-380 0 -414 -2 -452 -19 -80 -37 -78 -31 -294 -788 -110 -384
-200 -716 -200 -737 0 -101 86 -186 187 -186 108 0 167 51 206 177 13 43 93
322 178 620 l154 543 316 0 316 0 7 -41 c4 -22 3 -46 -1 -52 -4 -7 -134 -182
-290 -390 -156 -208 -288 -389 -293 -403 -6 -15 -10 -242 -10 -558 l0 -532 29
-46 c87 -137 307 -106 351 50 6 23 10 211 10 495 l0 457 191 255 192 256 45
-68 c60 -90 198 -231 301 -308 152 -115 363 -208 556 -246 107 -21 408 -18
515 5 182 39 362 119 513 226 100 72 262 236 323 328 l42 62 190 -255 191
-254 3 -480 3 -479 30 -44 c84 -118 251 -118 326 0 l29 46 0 532 c0 316 -4
543 -10 558 -5 14 -137 195 -293 403 -156 208 -286 383 -290 390 -4 6 -5 30
-1 52 l7 41 316 0 316 0 154 -543 c204 -715 196 -691 234 -734 115 -131 337
-49 337 125 0 33 -224 843 -381 1374 -23 79 -57 124 -114 149 -37 17 -74 19
-451 19 l-412 0 -4 31 c-4 27 0 34 31 53 20 12 227 137 460 277 267 160 432
265 447 284 12 17 113 256 223 533 212 530 219 552 187 625 -17 39 -71 92
-109 106 -41 16 -113 13 -150 -5 -73 -37 -79 -49 -273 -535 l-188 -468 -382
-229 -382 -230 -54 83 -54 84 303 303 c192 191 311 318 323 344 19 39 20 63
20 757 0 480 -3 725 -11 744 -14 38 -67 92 -106 109 -70 30 -167 9 -220 -48
-54 -57 -53 -46 -53 -745 l0 -648 -269 -269 -269 -268 -61 41 c-33 23 -100 61
-149 84 l-88 43 23 50 c51 113 54 146 51 541 l-3 368 -27 57 c-60 128 -171
210 -315 232 l-43 6 0 -211 c0 -196 -1 -210 -17 -205 -112 34 -234 34 -345 0
-17 -5 -18 9 -18 205 l0 211 -42 -6 c-60 -9 -125 -32 -168 -59 -56 -36 -127
-120 -152 -183 -22 -55 -23 -68 -26 -412 -3 -382 2 -438 51 -544 l23 -50 -88
-43 c-49 -23 -116 -61 -149 -84 l-61 -41 -269 268 -269 269 0 648 c0 699 1
688 -53 745 -53 57 -153 79 -222 48z"/>
</g>
</svg>
